<?xml version="1.0" encoding="UTF-8"?>
<svg id="Layer_1" data-name="Layer 1" xmlns="http://www.w3.org/2000/svg" viewBox="0 0 425.2 425.2">
  <defs>
    <style>
      .cls-1 {
        fill: #010101;
      }
    </style>
  </defs>
  <path class="cls-1" d="M125.19,239.2v-.14l-1.44-33.4c-.03-.68-.32-1.31-.82-1.78l-61.8-57.85c-.78-.73-1.92-.91-2.89-.44-.96.45-1.55,1.46-1.46,2.52l8.27,108.82c.01.21.05.43.12.65.12.38.32.72.6,1l58.88,64.62c.5.56,1.2.85,1.91.85.33,0,.67-.06.99-.2,1.01-.41,1.65-1.42,1.6-2.51l-3.95-80.71v-1.41ZM62.45,154.36l56.17,52.59,1.3,30.39-49.97,16.01-7.5-98.98ZM72.26,258.02l47.86-15.33,3.5,71.7-51.36-56.37Z"/>
  <path class="cls-1" d="M171.32,118.72l9.7,7.53c.45.36,1.02.55,1.59.55.21,0,.44-.03.66-.09l12.21-3.23s.04-.01.06-.02l31.25-8.98h.01l10.03-2.87,64.31-17.97c.99-.27,1.73-1.11,1.87-2.13.15-1.02-.32-2.02-1.19-2.56l-73.62-45.61c-.37-.24-.81-.39-1.29-.4h-.15c-.21,0-.42.03-.63.09l-110.96,26.93c-.96.23-1.71,1-1.92,1.98-.21.97.16,1.98.95,2.59l57.14,44.18s0,0,0,0ZM229.31,50.14l64.75,40.11-57.44,16.05-7.95-5.69.65-50.48ZM228.66,106.97l1.61,1.14-1.61.46v-1.61ZM183.18,121.39l-4.66-3.63,13.46-3.81.17,5.06-8.98,2.37ZM223.48,110.05l-26.2,7.53-.17-5.06,26.37-7.19v4.72ZM224.16,48.84l-.65,51.12-29.67,8.1s-.09.02-.13.03l-20.25,5.74-51.84-40.1,102.54-24.88Z"/>
  <path class="cls-1" d="M400.28,99.74c-.11-.14-.21-.27-.34-.4h0c-.17-.15-.34-.28-.54-.38L246.05,10.96c-.58-.32-1.24-.42-1.88-.27L27.17,60.98c-.64.15-1.2.54-1.57,1.08l-.71,1.07c-.29.43-.45.97-.44,1.54h0c0,.05,0,.1.01.15l19.05,213.04c.04.54.26,1.05.62,1.46l114.95,133.62c.04.05.08.1.13.15,0,0,.01.01.02.02l.72.71c.48.49,1.14.76,1.82.76.3,0,.62-.05.91-.17l5.83-2.18,208.74-85.87c.89-.36,1.49-1.18,1.59-2.14l21.92-222.75c.06-.63-.11-1.24-.45-1.73ZM244.35,15.94l147.31,84.52-236.11,70.45L31.77,65.22,244.35,15.94ZM48.58,276.57L30.17,70.66l122.2,104.36,5.89,229.07-109.69-127.52ZM373.82,322.17l-207.22,85.25-3.04,1.13-5.99-232.85,237.65-70.91-21.4,217.38Z"/>
  <path class="cls-1" d="M218.86,337.24c.43.3.95.45,1.47.45.31,0,.64-.05.94-.17l109.93-42.75c.62-.24,1.08-.69,1.36-1.22,0-.01.01-.01.01-.01.06-.12.11-.24.15-.38.08-.21.12-.44.13-.67l7.9-112.39c.06-.86-.31-1.7-1-2.23s-1.59-.68-2.4-.4l-42.73,14.36-12.21,3.95h-.02l-48.09,15.79s-.07.02-.1.03l-9.62,3.21c-.06.01-.12.03-.17.06h-.01s-.02.01-.04.01l-4.29,1.79c-.96.4-1.59,1.32-1.6,2.36l-.36,36.29v31.99l-.36,47.77c-.01.88.41,1.69,1.12,2.17ZM297.28,206.98l.62-10.82,37.42-12.58-7.28,103.64-33.21-26.94,2.45-53.29ZM292.61,197.89l-.23,3.99-3.65-2.74,3.88-1.25ZM282.72,201.1l9.32,6.99-2.21,48.05-49.53-41.11,42.42-13.93ZM227.91,219.14l6.59-2.2,52.53,43.6-36.66,13.05-23.13-20.81.67-33.63ZM223.27,257.17l.79-.28,20.81,18.72-21.6,8v-26.44ZM223.25,289.13l27.42-10.15,41.01-14.59,33.49,27.17-102.23,39.77.31-42.19Z"/>
</svg>

